[center]:::::::::::::Enjoy:Another:Release:From:T0XiC::::::::::::::

File:: Little.Fockers.2010.DVDSCR.READNFO.XViD-T0XiC-iNK
Video Source:: ....spanish subbed scr.. thanks
Audio Source:: ....^^^
Language::English with spanish hardsubs
IMDB::http://www.imdb.com/title/tt0970866/

Family-patriarch Jack Byrnes wants to appoint a successor. Does his son-in-law,

the "male nurse", Greg Focker have what it takes?

Specs::
General

Format                           : AVI
Format/Info                      : Audio Video Interleave
File size                        : 1.11 GiB
Duration                         : 1h 33mn
Overall bit rate                 : 1 688 Kbps
Writing application              : VirtualDubMod 1.5.10.2 (build 2542/release)
Writing library                  : VirtualDubMod build 2542/release

Video
ID                               : 0
Format                           : MPEG-4 Visual
Format profile                   : Advanced Simple@L5
Format settings, BVOP            : Yes
Format settings, QPel            : No
Format settings, GMC             : No warppoints
Format settings, Matrix          : Default (MPEG)
Codec ID                         : XVID
Codec ID/Hint                    : XviD
Duration                         : 1h 33mn
Bit rate                         : 1 612 Kbps
Width                            : 720 pixels
Height                           : 358 pixels
Display aspect ratio             : 2.011
Frame rate                       : 29.970 fps
Color space                      : YUV
Chroma subsampling               : 4:2:0
Bit depth                        : 8 bits
Scan type                        : Progressive
Bits/(Pixel*Frame)               : 0.209
Stream size                      : 1.06 GiB (96%)
Writing library                  : XviD 1.2.0.dev47 (UTC 2006-11-01)

Audio
ID                               : 1
Format                           : MPEG Audio
Format version                   : Version 1
Format profile                   : Layer 3
Mode                             : Joint stereo
Mode extension                   : MS Stereo
Codec ID                         : 55
Codec ID/Hint                    : MP3
Duration                         : 1h 33mn
Bit rate mode                    : Constant
Bit rate                         : 64.0 Kbps
Channel(s)                       : 2 channels
Sampling rate                    : 48.0 KHz
Stream size                      : 43.0 MiB (4%)
Alignment                        : Split accross interleaves
Interleave, duration             : 33 ms (1.00 video frame)
Interleave, preload duration     : 500 ms
Language                         : un





NOTES:: As you can tell from screens, it has hard spanish subs, wasn't worth

bluring them imo but im sure people will want them blurred so you will just have

to wait on another group to do that, which im sure wont be to long
It also has a JH watermark in the middle... not noticable on some scenes though,
This also may be a workprint.. if you look at the credits... it doesn't list

any... but i found it as a screener and i'll release it as a screener
enjoy
nice one joey


::Why Complain? Whats Free Is Free::

::iNK is currently a free agent looking for work, if you would like iNK's touch,

give me a email at: ...digital.ink@live.com or MSN add me.

::We are always looking for friends with unreleased DVD's, Screeners, R5's,

Audio, Cams, Silvers,
...and any other good sources you may have to offer - contact us:

t0xicreleases@hushmail.com

::::::::::::::::::::::::::::::::::::   Respect To  

:::::::::::::::::::::::::::::::::::::
::IMAGiNE,FLAWL3SS,Hive-CM8,DiGiTALiNK,Tranz,Vik,OneTwo,Joey,bob,& our friends on

utn and PA::
                      "and to all of you who support us, Thank-You"[/center]